<svg xmlns="http://www.w3.org/2000/svg" version="1.1" xmlns:xlink="http://www.w3.org/1999/xlink" xmlns:svgjs="http://svgjs.dev/svgjs" width="100%" height="100%" viewBox="0 0 1000 600"><rect width="1000" height="600" x="0" y="0" fill="#2a3fa8"/><g><circle r="166.66666666666666" cx="332.0824381510417" cy="354.30463340472306" fill="#d8dfff" transform="matrix(0.7556718745791318,0,0,0.7556718745791318,0,32.26198425134815)"/><path d="M363.89874018626233 296.9769013781422L317.72365267996173 296.9769013781422L317.72365267996173 344.04174140117556L350.64449579907176 344.04174140117556L349.754743282339 332.7817698963168Q349.53997543347253 329.46820879951923 352.85353653027016 329.46820879951923L352.85353653027016 329.46820879951923L365.2180284007281 329.46820879951923Q368.5315894975257 329.46820879951923 368.5315894975257 332.7817698963168L368.5315894975257 332.7817698963168L368.5315894975257 371.8695183900225Q368.5315894975257 375.1830794868202 365.2180284007281 375.1830794868202L365.2180284007281 375.1830794868202L352.85353653027016 375.1830794868202Q349.53997543347253 375.1830794868202 349.754743282339 371.8695183900225L349.754743282339 371.8695183900225L350.4297279502052 361.2538504317634L317.72365267996173 361.2538504317634L317.72365267996173 412.0617872493273L368.3168216486592 412.0617872493273L367.4270691319265 396.38373428207177Q367.21230128305996 393.0701731852741 370.52586237985764 393.0701731852741L370.52586237985764 393.0701731852741L382.8903542503155 393.0701731852741Q386.2039153471132 393.0701731852741 386.2039153471132 396.38373428207177L386.2039153471132 396.38373428207177L386.2039153471132 425.9910163043841Q386.2039153471132 429.3045774011818 382.8903542503155 429.3045774011818L382.8903542503155 429.3045774011818L281.27448061518754 429.3045774011818Q277.9609195183899 429.3045774011818 277.9609195183899 425.9910163043841L277.9609195183899 425.9910163043841L277.9609195183899 415.1605804972584Q277.9609195183899 411.84701940046085 281.27448061518754 411.84701940046085L281.27448061518754 411.84701940046085L292.99466893904594 411.84701940046085L292.99466893904594 297.19166922700873L281.27448061518754 297.19166922700873Q277.9609195183899 297.19166922700873 277.9609195183899 293.8781081302111L277.9609195183899 293.8781081302111L277.9609195183899 282.61813662535235Q277.9609195183899 279.3045755285548 281.27448061518754 279.3045755285548L281.27448061518754 279.3045755285548L378.47227278791866 279.3045755285548Q381.78583388471634 279.3045755285548 381.78583388471634 282.61813662535235L381.78583388471634 282.61813662535235L381.78583388471634 312.22541864766475Q381.78583388471634 315.53897974446244 378.47227278791866 315.53897974446244L378.47227278791866 315.53897974446244L366.1077809174608 315.53897974446244Q362.7942198206631 315.53897974446244 363.00898766952963 312.22541864766475L363.00898766952963 312.22541864766475L363.89874018626233 296.9769013781422Z " fill="#2a3fa8" transform="matrix(0.7556718745791318,0,0,0.7556718745791318,0,32.26198425134815)"/><path d="M641.2668050854467 301.65984267066364L609.4665539892923 301.65984267066364L609.4665539892923 334.0728560802988L632.1387595880788 334.0728560802988L631.525997274598 326.3182433545256Q631.3780891299647 324.0362319801836 633.6601005043067 324.0362319801836L633.6601005043067 324.0362319801836L642.1753836881938 324.0362319801836Q644.457395062536 324.0362319801836 644.457395062536 326.3182433545256L644.457395062536 326.3182433545256L644.457395062536 353.2375256777819Q644.457395062536 355.5195370521239 642.1753836881938 355.5195370521239L642.1753836881938 355.5195370521239L633.6601005043067 355.5195370521239Q631.3780891299647 355.5195370521239 631.525997274598 353.2375256777819L631.525997274598 353.2375256777819L631.9908514434454 345.9266373859086L609.4665539892923 345.9266373859086L609.4665539892923 380.9174784591523L644.3094869179026 380.9174784591523L643.6967246044219 370.120183900923Q643.5488164597886 367.8381725265811 645.8308278341307 367.8381725265811L645.8308278341307 367.8381725265811L654.3461110180178 367.8381725265811Q656.6281223923598 367.8381725265811 656.6281223923598 370.120183900923L656.6281223923598 370.120183900923L656.6281223923598 390.5103781253676Q656.6281223923598 392.7923894997096 654.3461110180178 392.7923894997096L654.3461110180178 392.7923894997096L584.3644288715304 392.7923894997096Q582.0824174971884 392.7923894997096 582.0824174971884 390.5103781253676L582.0824174971884 390.5103781253676L582.0824174971884 383.05158168886095Q582.0824174971884 380.76957031451894 584.3644288715304 380.76957031451894L584.3644288715304 380.76957031451894L592.4359876215178 380.76957031451894L592.4359876215178 301.8077508152969L584.3644288715304 301.8077508152969Q582.0824174971884 301.8077508152969 582.0824174971884 299.5257394409549L582.0824174971884 299.5257394409549L582.0824174971884 291.7711267151817Q582.0824174971884 289.48911534083976 584.3644288715304 289.48911534083976L584.3644288715304 289.48911534083976L651.3034291855619 289.48911534083976Q653.5854405599038 289.48911534083976 653.5854405599038 291.7711267151817L653.5854405599038 291.7711267151817L653.5854405599038 312.16132093962625Q653.5854405599038 314.44333231396826 651.3034291855619 314.44333231396826L651.3034291855619 314.44333231396826L642.7881460016746 314.44333231396826Q640.5061346273327 314.44333231396826 640.6540427719659 312.16132093962625L640.6540427719659 312.16132093962625L641.2668050854467 301.65984267066364ZM735.737850036215 281.5865944704333L735.737850036215 380.76957031451894L742.2880678699745 380.76957031451894Q744.5700792443164 380.76957031451894 744.5700792443164 383.05158168886095L744.5700792443164 383.05158168886095L744.5700792443164 390.5103781253676Q744.5700792443164 392.7923894997096 742.2880678699745 392.7923894997096L742.2880678699745 392.7923894997096L725.0884636226192 392.7923894997096Q723.1022685375438 392.7923894997096 722.8064522482772 390.5103781253676L722.8064522482772 390.5103781253676L721.5809276213157 381.5302407726329Q713.8263148955426 394.6095467052041 696.7957485277682 394.6095467052041L696.7957485277682 394.6095467052041Q681.8781556547548 394.6095467052041 673.827726639715 385.27020385836005Q665.7561678897276 375.9097312765684 665.7561678897276 356.19568857044743Q665.7561678897276 336.5027755992741 675.1166404715193 326.1492054749447Q684.477113053311 315.81676508556296 699.2256680467434 315.81676508556296L699.2256680467434 315.81676508556296Q705.9237940251361 315.81676508556296 711.1005790873007 318.3312035443286Q716.2562344145177 320.82451226814675 718.7072836684407 324.3320482694501L718.7072836684407 324.3320482694501L718.7072836684407 291.91903485981504L710.6357249184533 291.91903485981504Q708.3537135441113 291.91903485981504 708.3537135441113 289.63702348547304L708.3537135441113 289.63702348547304L708.3537135441113 281.5865944704333Q708.3537135441113 279.3045830960913 710.6357249184533 279.3045830960913L710.6357249184533 279.3045830960913L733.4558386618731 279.3045830960913Q735.737850036215 279.3045830960913 735.737850036215 281.5865944704333L735.737850036215 281.5865944704333ZM718.7072836684407 364.1827283806444L718.7072836684407 364.1827283806444L718.7072836684407 337.4113542020213Q716.7210885833653 334.36867236956533 711.7767306056243 331.7908447059568Q706.8323726278834 329.1918873074007 701.803495710352 329.1918873074007L701.803495710352 329.1918873074007Q682.955772137083 329.1918873074007 682.955772137083 354.75886659400993L682.955772137083 354.75886659400993Q682.955772137083 374.38839036034045 691.4710553209702 379.248229398291L691.4710553209702 379.248229398291Q695.1264994669069 381.3823326279997 701.5076794210854 381.3823326279997Q707.8888593752639 381.3823326279997 713.2980715218523 376.67040173468246Q718.7072836684407 371.9584708413652 718.7072836684407 364.1827283806444ZM826.7224887206277 319.76802552076623L826.7224887206277 380.76957031451894L833.3994849640727 380.76957031451894Q835.6814963384147 380.76957031451894 835.6814963384147 383.05158168886095L835.6814963384147 383.05158168886095L835.6814963384147 390.5103781253676Q835.6814963384147 392.7923894997096 833.3994849640727 392.7923894997096L833.3994849640727 392.7923894997096L816.3689185962984 392.7923894997096Q814.5517613908038 392.7923894997096 814.0869072219564 390.5103781253676L814.0869072219564 390.5103781253676L812.7134744503617 381.99509494148043Q802.972666639513 394.6095467052041 787.1676248987001 394.6095467052041L787.1676248987001 394.6095467052041Q762.5092242148381 394.6095467052041 762.5092242148381 368.7467511293283L762.5092242148381 368.7467511293283L762.5092242148381 329.95255776551465L754.4587951997984 329.95255776551465Q752.1767838254564 329.95255776551465 752.1767838254564 327.67054639117265L752.1767838254564 327.67054639117265L752.1767838254564 319.76802552076623Q752.1767838254564 317.4860141464242 754.4587951997984 317.4860141464242L754.4587951997984 317.4860141464242L777.2789089432182 317.4860141464242Q779.5609203175601 317.4860141464242 779.5609203175601 319.76802552076623L779.5609203175601 319.76802552076623L779.5609203175601 364.1827283806444Q779.5609203175601 373.3107738780123 781.9063208967449 377.19864510837266Q784.2728512108773 381.08651633873313 791.9429449968601 381.08651633873313Q799.6341685177905 381.08651633873313 804.6630454353219 376.5224935900491Q809.6707926179057 371.9584708413652 809.6707926179057 366.16892346571984L809.6707926179057 366.16892346571984L809.6707926179057 329.95255776551465L800.0990226866379 329.95255776551465Q797.817011312296 329.95255776551465 797.817011312296 327.67054639117265L797.817011312296 327.67054639117265L797.817011312296 319.76802552076623Q797.817011312296 317.4860141464242 800.0990226866379 317.4860141464242L800.0990226866379 317.4860141464242L824.4404773462858 317.4860141464242Q826.7224887206277 317.4860141464242 826.7224887206277 319.76802552076623L826.7224887206277 319.76802552076623ZM883.3079189103297 286.91128767723126L883.3079189103297 286.91128767723126Q894.5700676374064 286.91128767723126 905.832216364483 290.2497857989538L905.832216364483 290.2497857989538Q907.9451898592441 290.86254811243447 907.9451898592441 292.9966513421432L907.9451898592441 292.9966513421432L907.9451898592441 313.97847814512085Q907.9451898592441 316.26048951946285 905.6631784849021 316.26048951946285L905.6631784849021 316.26048951946285L897.147895301015 316.26048951946285Q894.865883926673 316.26048951946285 895.0137920713062 313.97847814512085L895.0137920713062 313.97847814512085L895.4786462401536 303.79394590037236Q889.3932825752416 300.13850175443565 881.934486138735 300.13850175443565Q874.4756897022284 300.13850175443565 869.9961858933349 303.70942696058194Q865.5166820844414 307.30148190167574 865.5166820844414 313.6826618558543Q865.5166820844414 320.0638418100328 869.6158506642779 324.0996211850265Q873.7150192441144 328.1354005600202 881.3217238252544 331.0301742478428Q888.9284284063942 333.92494793566556 891.5273858049504 334.9814346830461Q894.105213468559 336.0379214304266 899.0495714462999 338.93269511824934Q903.9939294240409 341.827468806072 906.3604597381733 344.6377235541043Q908.7058603173581 347.4479783021365 910.7765743422239 352.18103893040137Q912.8261586321422 356.8929698237186 912.8261586321422 362.66138746441635L912.8261586321422 362.66138746441635Q912.8261586321422 377.726888482063 903.3177779057172 386.17878246110735Q893.8093971792923 394.6095467052041 876.3139766426706 394.6095467052041L876.3139766426706 394.6095467052041Q863.3825788547326 394.6095467052041 850.7469973560613 390.6582862700008L850.7469973560613 390.6582862700008Q848.6128941263527 390.0455239565202 848.6128941263527 387.93255046175904L848.6128941263527 387.93255046175904L848.6128941263527 363.7390039467445Q848.6128941263527 361.4569925724026 850.8949055006946 361.4569925724026L850.8949055006946 361.4569925724026L859.4313184195295 361.4569925724026Q861.7133297938714 361.4569925724026 861.5442919142905 363.7390039467445L861.5442919142905 363.7390039467445L860.9526593357574 376.35345571046827Q862.9177246858852 378.1917426509104 867.5662663743595 379.7764727719812Q872.1936783278865 381.3823326279997 877.0746471007845 381.3823326279997L877.0746471007845 381.3823326279997Q895.9435004090011 381.3823326279997 895.9435004090011 366.0210153210865L895.9435004090011 366.0210153210865Q895.9435004090011 358.56221888457986 890.9146234914697 354.2306232203196Q885.8857465739383 349.89902755605937 877.8987067637414 347.2366809526604Q869.9116669535445 344.5743343492614 865.8124983737079 342.5036203243955Q861.7133297938714 340.45403603447727 857.445123334454 337.11553791275475L857.445123334454 337.11553791275475Q848.9298401505667 330.7132282236286 848.9298401505667 317.4860141464242Q848.9298401505667 304.2588000692198 858.0578856479348 295.57447900575175Q867.1859311453026 286.91128767723126 883.3079189103297 286.91128767723126ZM944.0136474148159 319.6201173761329L944.0136474148159 319.6201173761329L961.8048842407044 375.0011526738212L977.631055716465 329.95255776551465L969.8764429906917 329.95255776551465Q967.5944316163498 329.95255776551465 967.5944316163498 327.67054639117265L967.5944316163498 327.67054639117265L967.5944316163498 319.76802552076623Q967.5944316163498 317.4860141464242 969.8764429906917 317.4860141464242L969.8764429906917 317.4860141464242L992.0837944206307 317.4860141464242Q993.9009516261252 317.4860141464242 994.513713939606 318.54250089380474Q995.1264762530867 319.6201173761329 995.1264762530867 320.44417703908977Q995.1264762530867 321.28936643699416 994.8306599638202 322.05003689510824L994.8306599638202 322.05003689510824L962.2697384095518 407.09722005924215Q959.9877270352098 412.8656376999399 958.3818671791913 415.9928384721864Q956.7971370581205 419.1200392444328 953.9023633702978 422.60644551078855L953.9023633702978 422.60644551078855Q948.2607241392858 429.3045714891812 937.3155214364233 429.3045714891812Q926.3703187335608 429.3045714891812 919.355246730954 425.9660733674587L919.355246730954 425.9660733674587Q918.1508518389402 425.35331105397796 918.1508518389402 424.4447324512308Q918.1508518389402 423.51502411353584 918.2987599835734 423.07129967963607L918.2987599835734 423.07129967963607L920.876587647182 415.6125032431293Q921.4893499606627 413.626308158054 923.7713613350047 414.2390704715346L923.7713613350047 414.2390704715346Q931.082249626878 416.66898999050994 935.7096615804049 416.66898999050994Q940.3582032688793 416.66898999050994 942.8726417276449 414.32358941132514Q945.3870801864106 411.9570590971927 948.1128159946525 404.49826266068607L948.1128159946525 404.49826266068607L951.9161682852224 394.46163856057086L928.800238252536 329.95255776551465L921.1935336713962 329.95255776551465Q918.9115222970541 329.95255776551465 918.9115222970541 327.67054639117265L918.9115222970541 327.67054639117265L918.9115222970541 319.76802552076623Q918.9115222970541 317.4860141464242 921.1935336713962 317.4860141464242L921.1935336713962 317.4860141464242L941.1188737269932 317.4860141464242Q943.4008851013352 317.4860141464242 944.0136474148159 319.6201173761329ZM1001.6766940868462 327.8395842707536L1001.6766940868462 327.8395842707536L1001.6766940868462 319.76802552076623Q1001.6766940868462 317.4860141464242 1003.9587054611881 317.4860141464242L1003.9587054611881 317.4860141464242L1024.644715974899 317.4860141464242Q1026.6097813250271 317.4860141464242 1027.0746354938742 319.76802552076623L1027.0746354938742 319.76802552076623L1028.448068265469 328.6002547288676Q1036.9633514493562 315.81676508556296 1052.7895229251171 315.81676508556296L1052.7895229251171 315.81676508556296Q1076.370307126651 315.81676508556296 1076.370307126651 341.67956066143876L1076.370307126651 341.67956066143876L1076.370307126651 380.76957031451894L1085.1814065998046 380.76957031451894Q1087.4634179741465 380.76957031451894 1087.4634179741465 383.05158168886095L1087.4634179741465 383.05158168886095L1087.4634179741465 390.5103781253676Q1087.4634179741465 392.7923894997096 1085.1814065998046 392.7923894997096L1085.1814065998046 392.7923894997096L1052.0288524670027 392.7923894997096Q1049.7468410926608 392.7923894997096 1049.7468410926608 390.5103781253676L1049.7468410926608 390.5103781253676L1049.7468410926608 383.05158168886095Q1049.7468410926608 380.76957031451894 1052.0288524670027 380.76957031451894L1052.0288524670027 380.76957031451894L1059.318611023929 380.76957031451894L1059.318611023929 349.2862652425786Q1059.318611023929 339.6933655763633 1056.8886915049534 335.27725097231263Q1054.4587719859783 330.8822661032096 1046.8520674048382 330.8822661032096Q1039.2453628236985 330.8822661032096 1034.2164859061668 335.4462888518935Q1029.2087387235833 340.0103116005775 1029.2087387235833 345.77872924127524L1029.2087387235833 345.77872924127524L1029.2087387235833 380.76957031451894L1038.6326005102178 380.76957031451894Q1040.9146118845597 380.76957031451894 1040.9146118845597 383.05158168886095L1040.9146118845597 383.05158168886095L1040.9146118845597 390.5103781253676Q1040.9146118845597 392.7923894997096 1038.6326005102178 392.7923894997096L1038.6326005102178 392.7923894997096L1004.1066136058214 392.7923894997096Q1001.8246022314794 392.7923894997096 1001.8246022314794 390.5103781253676L1001.8246022314794 390.5103781253676L1001.8246022314794 383.05158168886095Q1001.8246022314794 380.76957031451894 1004.1066136058214 380.76957031451894L1004.1066136058214 380.76957031451894L1012.1570426208611 380.76957031451894L1012.1570426208611 329.95255776551465L1003.9587054611881 329.95255776551465Q1001.6766940868462 329.95255776551465 1001.6766940868462 327.8395842707536ZM1112.417634947275 354.1461042805292L1112.417634947275 354.1461042805292Q1112.417634947275 381.8471867968471 1133.8643159190997 381.8471867968471L1133.8643159190997 381.8471867968471Q1140.7103500421258 381.8471867968471 1149.8383955394938 377.726888482063L1149.8383955394938 377.726888482063Q1152.1204069138357 376.8183098793157 1153.0501152515308 379.1003212536577L1153.0501152515308 379.1003212536577L1155.7758510597723 385.79844723205036Q1156.5365215178867 387.93255046175904 1154.5714561677587 388.98903720913955L1154.5714561677587 388.98903720913955Q1145.27437279081 394.6095467052041 1131.1385801108581 394.6095467052041L1131.1385801108581 394.6095467052041Q1112.7345809714889 394.6095467052041 1103.9023517633877 384.1925873760319Q1095.0701225552862 373.7756280468597 1095.0701225552862 355.8998722811809Q1095.0701225552862 338.02411651550204 1104.1347788478115 326.9098759330587Q1113.178305405389 315.81676508556296 1131.1385801108581 315.81676508556296L1131.1385801108581 315.81676508556296Q1144.83064835691 315.81676508556296 1151.3597364557218 323.2755615220696Q1157.909954289481 330.7132282236286 1157.909954289481 342.2923229749195L1157.909954289481 342.2923229749195Q1157.909954289481 344.2573883250473 1155.3321266258727 344.2573883250473L1155.3321266258727 344.2573883250473L1146.2040811285046 344.2573883250473Q1143.7530318745817 344.2573883250473 1143.6051237299484 341.9753769507053L1143.6051237299484 341.9753769507053Q1142.8444532718345 328.6002547288676 1130.0609636285299 328.6002547288676L1130.0609636285299 328.6002547288676Q1120.9329181311618 328.6002547288676 1116.6858414066924 334.89691574325565Q1112.417634947275 341.21470649259135 1112.417634947275 354.1461042805292Z " fill="white" transform="matrix(0.7556718745791318,0,0,0.7556718745791318,0,32.26198425134815)"/></g></svg>